<svg width="19" height="32" viewBox="0 0 19 32" fill="none" xmlns="http://www.w3.org/2000/svg">
<path d="M2.49327 29.9902H15.9309C16.1738 29.9899 16.4067 29.8855 16.5784 29.6999C16.7502 29.5143 16.8468 29.2627 16.8471 29.0003V3.26289C16.8468 3.00044 16.7502 2.74883 16.5784 2.56325C16.4067 2.37768 16.1738 2.27329 15.9309 2.27299H2.49327C2.25036 2.27329 2.01748 2.37768 1.84572 2.56325C1.67396 2.74883 1.57735 3.00044 1.57707 3.26289V29.0003C1.57735 29.2627 1.67396 29.5143 1.84572 29.6999C2.01748 29.8855 2.25036 29.9899 2.49327 29.9902ZM2.18787 3.26289C2.18796 3.17541 2.22016 3.09153 2.27742 3.02967C2.33467 2.96781 2.4123 2.93302 2.49327 2.93292H15.9309C16.0119 2.93302 16.0895 2.96781 16.1467 3.02967C16.204 3.09153 16.2362 3.17541 16.2363 3.26289V29.0003C16.2362 29.0878 16.204 29.1716 16.1467 29.2335C16.0895 29.2954 16.0119 29.3301 15.9309 29.3302H2.49327C2.4123 29.3301 2.33467 29.2954 2.27742 29.2335C2.22016 29.1716 2.18796 29.0878 2.18787 29.0003V3.26289ZM2.49327 31.31H15.9309C16.4977 31.3094 17.0411 31.0658 17.4418 30.6328C17.8426 30.1997 18.0681 29.6127 18.0687 29.0003V3.26289C18.0681 2.65051 17.8426 2.06342 17.4418 1.6304C17.0411 1.19739 16.4977 0.953815 15.9309 0.953125H2.49327C1.92649 0.953815 1.3831 1.19739 0.982322 1.6304C0.581545 2.06342 0.356107 2.65051 0.355469 3.26289V29.0003C0.356107 29.6127 0.581545 30.1997 0.982322 30.6328C1.3831 31.0658 1.92649 31.3094 2.49327 31.31ZM0.966269 3.26289C0.96673 2.82548 1.12776 2.40613 1.41403 2.09683C1.7003 1.78754 2.08843 1.61356 2.49327 1.61306H15.9309C16.3357 1.61356 16.7239 1.78754 17.0101 2.09683C17.2964 2.40613 17.4574 2.82548 17.4579 3.26289V29.0003C17.4574 29.4377 17.2964 29.857 17.0101 30.1663C16.7239 30.4756 16.3357 30.6496 15.9309 30.6501H2.49327C2.08843 30.6496 1.7003 30.4756 1.41403 30.1663C1.12776 29.857 0.96673 29.4377 0.966269 29.0003V3.26289ZM8.60128 4.25279C8.60128 4.12227 8.6371 3.99468 8.70422 3.88615C8.77133 3.77763 8.86673 3.69304 8.97834 3.64309C9.08995 3.59314 9.21276 3.58007 9.33124 3.60554C9.44972 3.631 9.55856 3.69385 9.64398 3.78615C9.7294 3.87844 9.78758 3.99603 9.81114 4.12404C9.83471 4.25206 9.82262 4.38475 9.77639 4.50534C9.73016 4.62592 9.65187 4.72899 9.55142 4.8015C9.45098 4.87402 9.33288 4.91272 9.21208 4.91272C9.05009 4.91272 8.89472 4.84319 8.78018 4.71943C8.66563 4.59567 8.60128 4.42781 8.60128 4.25279Z" fill="black"/>
</svg>
