<svg width="31" height="19" viewBox="0 0 31 19" fill="none" xmlns="http://www.w3.org/2000/svg">
<path d="M7.42969 0.78125H0.971354C0.885711 0.78125 0.803576 0.815271 0.743018 0.87583C0.682459 0.936388 0.648438 1.01852 0.648438 1.10417V17.8958C0.648438 17.9815 0.682459 18.0636 0.743018 18.1242C0.803576 18.1847 0.885711 18.2188 0.971354 18.2188H7.42969C7.51533 18.2188 7.59747 18.1847 7.65802 18.1242C7.71858 18.0636 7.7526 17.9815 7.7526 17.8958V1.10417C7.7526 1.01852 7.71858 0.936388 7.65802 0.87583C7.59747 0.815271 7.51533 0.78125 7.42969 0.78125ZM7.10677 17.5729H1.29427V1.42708H7.10677V17.5729ZM28.7422 0.78125H10.6589C10.2308 0.781737 9.8204 0.952001 9.51771 1.25469C9.21502 1.55738 9.04476 1.96777 9.04427 2.39583V13.6979C9.04476 14.126 9.21502 14.5364 9.51771 14.8391C9.8204 15.1417 10.2308 15.312 10.6589 15.3125H17.4401V16.2812H16.1484C15.8916 16.2815 15.6454 16.3837 15.4637 16.5653C15.2821 16.7469 15.18 16.9932 15.1797 17.25V17.8958C15.1797 17.9815 15.2137 18.0636 15.2743 18.1242C15.3348 18.1847 15.417 18.2188 15.5026 18.2188H23.8984C23.9841 18.2188 24.0662 18.1847 24.1268 18.1242C24.1873 18.0636 24.2214 17.9815 24.2214 17.8958V17.25C24.2211 16.9932 24.1189 16.7469 23.9373 16.5653C23.7557 16.3837 23.5094 16.2815 23.2526 16.2812H21.9609V15.3125H28.7422C29.1703 15.312 29.5806 15.1417 29.8833 14.8391C30.186 14.5364 30.3563 14.126 30.3568 13.6979V2.39583C30.3563 1.96777 30.186 1.55738 29.8833 1.25469C29.5806 0.952001 29.1703 0.781737 28.7422 0.78125ZM23.2526 16.9271C23.3382 16.9272 23.4203 16.9612 23.4808 17.0218C23.5414 17.0823 23.5754 17.1644 23.5755 17.25V17.5729H15.8255V17.25C15.8256 17.1644 15.8597 17.0823 15.9202 17.0218C15.9807 16.9612 16.0628 16.9272 16.1484 16.9271H23.2526ZM18.0859 16.2812V15.3125H21.3151V16.2812H18.0859ZM29.7109 13.6979C29.7106 13.9548 29.6085 14.201 29.4269 14.3826C29.2453 14.5642 28.999 14.6664 28.7422 14.6667H10.6589C10.402 14.6664 10.1558 14.5642 9.97416 14.3826C9.79255 14.201 9.69039 13.9548 9.6901 13.6979V2.39583C9.69039 2.13899 9.79255 1.89276 9.97416 1.71114C10.1558 1.52953 10.402 1.42737 10.6589 1.42708H28.7422C28.999 1.42737 29.2453 1.52953 29.4269 1.71114C29.6085 1.89276 29.7106 2.13899 29.7109 2.39583V13.6979ZM28.7422 2.07292H10.6589C10.5732 2.07292 10.4911 2.10694 10.4305 2.1675C10.37 2.22806 10.3359 2.31019 10.3359 2.39583V12.0833C10.3359 12.169 10.37 12.2511 10.4305 12.3117C10.4911 12.3722 10.5732 12.4062 10.6589 12.4062H28.7422C28.8278 12.4062 28.91 12.3722 28.9705 12.3117C29.0311 12.2511 29.0651 12.169 29.0651 12.0833V2.39583C29.0651 2.31019 29.0311 2.22806 28.9705 2.1675C28.91 2.10694 28.8278 2.07292 28.7422 2.07292ZM28.4193 11.7604H10.9818V2.71875H28.4193V11.7604ZM4.20052 5.30208C4.45599 5.30208 4.70572 5.22633 4.91813 5.0844C5.13055 4.94247 5.2961 4.74074 5.39387 4.50472C5.49163 4.26869 5.51721 4.00898 5.46737 3.75842C5.41753 3.50787 5.29451 3.27771 5.11387 3.09707C4.93322 2.91643 4.70307 2.79341 4.45251 2.74357C4.20195 2.69373 3.94224 2.71931 3.70622 2.81707C3.4702 2.91484 3.26847 3.08039 3.12654 3.2928C2.98461 3.50522 2.90885 3.75495 2.90885 4.01042C2.90924 4.35287 3.04545 4.68119 3.2876 4.92334C3.52975 5.16549 3.85807 5.3017 4.20052 5.30208ZM4.20052 3.36458C4.32825 3.36458 4.45312 3.40246 4.55933 3.47343C4.66553 3.54439 4.74831 3.64526 4.79719 3.76327C4.84607 3.88128 4.85886 4.01113 4.83394 4.13641C4.80902 4.26169 4.74752 4.37677 4.65719 4.46709C4.56687 4.55741 4.4518 4.61892 4.32652 4.64384C4.20124 4.66876 4.07138 4.65597 3.95337 4.60709C3.83536 4.55821 3.73449 4.47543 3.66353 4.36922C3.59256 4.26302 3.55469 4.13815 3.55469 4.01042C3.55488 3.83919 3.62299 3.67504 3.74406 3.55396C3.86514 3.43289 4.0293 3.36478 4.20052 3.36458ZM2.58594 14.6667C2.58594 14.581 2.61996 14.4989 2.68052 14.4383C2.74108 14.3778 2.82321 14.3438 2.90885 14.3438H5.49219C5.57783 14.3438 5.65997 14.3778 5.72052 14.4383C5.78108 14.4989 5.8151 14.581 5.8151 14.6667C5.8151 14.7523 5.78108 14.8344 5.72052 14.895C5.65997 14.9556 5.57783 14.9896 5.49219 14.9896H2.90885C2.82321 14.9896 2.74108 14.9556 2.68052 14.895C2.61996 14.8344 2.58594 14.7523 2.58594 14.6667ZM2.58594 13.375C2.58594 13.2894 2.61996 13.2072 2.68052 13.1467C2.74108 13.0861 2.82321 13.0521 2.90885 13.0521H5.49219C5.57783 13.0521 5.65997 13.0861 5.72052 13.1467C5.78108 13.2072 5.8151 13.2894 5.8151 13.375C5.8151 13.4606 5.78108 13.5428 5.72052 13.6033C5.65997 13.6639 5.57783 13.6979 5.49219 13.6979H2.90885C2.82321 13.6979 2.74108 13.6639 2.68052 13.6033C2.61996 13.5428 2.58594 13.4606 2.58594 13.375ZM2.58594 15.9583C2.58594 15.8727 2.61996 15.7906 2.68052 15.73C2.74108 15.6694 2.82321 15.6354 2.90885 15.6354H5.49219C5.57783 15.6354 5.65997 15.6694 5.72052 15.73C5.78108 15.7906 5.8151 15.8727 5.8151 15.9583C5.8151 16.044 5.78108 16.1261 5.72052 16.1867C5.65997 16.2472 5.57783 16.2812 5.49219 16.2812H2.90885C2.82321 16.2812 2.74108 16.2472 2.68052 16.1867C2.61996 16.1261 2.58594 16.044 2.58594 15.9583Z" fill="black"/>
</svg>
