<svg width="31" height="22" viewBox="0 0 31 22" fill="none" xmlns="http://www.w3.org/2000/svg">
<path d="M30.0878 16.9642L29.3808 5.65305C29.2886 4.17713 28.6373 2.79186 27.5595 1.77932C26.4817 0.766788 25.0585 0.203129 23.5797 0.203125H7.41491C5.9361 0.203129 4.5129 0.766788 3.43511 1.77932C2.35732 2.79186 1.70599 4.17713 1.61374 5.65305L0.906781 16.9642C0.870282 17.5482 0.953792 18.1335 1.15216 18.6839C1.35053 19.2344 1.65956 19.7384 2.06019 20.1648C2.46082 20.5913 2.94455 20.9311 3.48157 21.1635C4.01859 21.3958 4.5975 21.5156 5.18262 21.5156C6.09015 21.5176 6.97472 21.2305 7.70808 20.6959C8.44144 20.1613 8.98547 19.407 9.26128 18.5424L10.9237 13.3704C11.0069 13.1097 11.1709 12.8823 11.392 12.7211C11.6131 12.5599 11.8798 12.4734 12.1534 12.474H18.841C19.1146 12.4734 19.3813 12.5599 19.6024 12.7211C19.8235 12.8823 19.9876 13.1097 20.0707 13.3704L21.7332 18.5424C22.0527 19.5366 22.7243 20.3799 23.6219 20.9137C24.5194 21.4475 25.581 21.6351 26.6071 21.4412C27.6332 21.2474 28.5532 20.6855 29.1941 19.861C29.8351 19.0366 30.1528 18.0064 30.0877 16.9642H30.0878ZM28.4635 19.7226C28.03 20.184 27.4836 20.5244 26.8783 20.71C26.273 20.8955 25.6298 20.92 25.0121 20.7808C24.3945 20.6417 23.8239 20.3438 23.3566 19.9165C22.8894 19.4893 22.5417 18.9476 22.348 18.3448L20.6857 13.1728C20.561 12.7817 20.315 12.4406 19.9833 12.1988C19.6516 11.9571 19.2516 11.8272 18.8412 11.8281H12.1535C11.7431 11.8272 11.3431 11.9571 11.0114 12.1988C10.6797 12.4406 10.4337 12.7817 10.309 13.1728L8.64642 18.3448C8.37505 19.1891 7.80465 19.9052 7.04243 20.3586C6.28021 20.8119 5.37866 20.9712 4.50723 20.8066C3.6358 20.642 2.8545 20.1647 2.31018 19.4646C1.76587 18.7644 1.49602 17.8896 1.55136 17.0045L2.25832 5.69335C2.34031 4.38142 2.91927 3.15006 3.87731 2.25003C4.83534 1.34999 6.10041 0.848962 7.41491 0.848958H23.5797C24.8942 0.848962 26.1592 1.34999 27.1173 2.25003C28.0753 3.15006 28.6543 4.38142 28.7363 5.69335L29.4432 17.0045C29.4763 17.5006 29.4064 17.9982 29.2378 18.466C29.0692 18.9338 28.8057 19.3616 28.4637 19.7226H28.4635ZM10.3306 5.69271H8.71604V4.07813C8.71604 3.99248 8.68202 3.91035 8.62146 3.84979C8.5609 3.78923 8.47876 3.75521 8.39312 3.75521H6.45562C6.36998 3.75521 6.28784 3.78923 6.22728 3.84979C6.16672 3.91035 6.1327 3.99248 6.1327 4.07813V5.69271H4.51812C4.43248 5.69271 4.35034 5.72673 4.28978 5.78729C4.22922 5.84785 4.1952 5.92998 4.1952 6.01563V7.95313C4.1952 8.03877 4.22922 8.1209 4.28978 8.18146C4.35034 8.24202 4.43248 8.27604 4.51812 8.27604H6.1327V9.89063C6.1327 9.97627 6.16672 10.0584 6.22728 10.119C6.28784 10.1795 6.36998 10.2135 6.45562 10.2135H8.39312C8.47876 10.2135 8.5609 10.1795 8.62146 10.119C8.68202 10.0584 8.71604 9.97627 8.71604 9.89063V8.27604H10.3306C10.4163 8.27604 10.4984 8.24202 10.559 8.18146C10.6195 8.1209 10.6535 8.03877 10.6535 7.95313V6.01563C10.6535 5.92998 10.6195 5.84785 10.559 5.78729C10.4984 5.72673 10.4163 5.69271 10.3306 5.69271ZM10.0077 7.63021H8.39312C8.30748 7.63021 8.22534 7.66423 8.16478 7.72479C8.10422 7.78535 8.0702 7.86748 8.0702 7.95313V9.56771H6.77854V7.95313C6.77854 7.86748 6.74452 7.78535 6.68396 7.72479C6.6234 7.66423 6.54126 7.63021 6.45562 7.63021H4.84104V6.33854H6.45562C6.54126 6.33854 6.6234 6.30452 6.68396 6.24396C6.74452 6.1834 6.77854 6.10127 6.77854 6.01563V4.40104H8.0702V6.01563C8.0702 6.10127 8.10422 6.1834 8.16478 6.24396C8.22534 6.30452 8.30748 6.33854 8.39312 6.33854H10.0077V7.63021ZM23.5702 6.01563C23.8257 6.01563 24.0754 5.93987 24.2878 5.79794C24.5002 5.65601 24.6658 5.45428 24.7635 5.21826C24.8613 4.98224 24.8869 4.72253 24.8371 4.47197C24.7872 4.22141 24.6642 3.99126 24.4836 3.81061C24.3029 3.62997 24.0728 3.50695 23.8222 3.45711C23.5716 3.40727 23.3119 3.43285 23.0759 3.53061C22.8399 3.62838 22.6382 3.79393 22.4962 4.00635C22.3543 4.21876 22.2785 4.46849 22.2785 4.72396C22.2789 5.06641 22.4151 5.39473 22.6573 5.63688C22.8994 5.87903 23.2278 6.01524 23.5702 6.01563ZM23.5702 4.07813C23.6979 4.07813 23.8228 4.116 23.929 4.18697C24.0352 4.25793 24.118 4.3588 24.1669 4.47681C24.2158 4.59482 24.2285 4.72467 24.2036 4.84995C24.1787 4.97523 24.1172 5.09031 24.0269 5.18063C23.9366 5.27095 23.8215 5.33246 23.6962 5.35738C23.5709 5.3823 23.4411 5.36951 23.3231 5.32063C23.205 5.27175 23.1042 5.18897 23.0332 5.08277C22.9622 4.97656 22.9244 4.85169 22.9244 4.72396C22.9246 4.55273 22.9927 4.38858 23.1137 4.2675C23.2348 4.14643 23.399 4.07832 23.5702 4.07813ZM23.5702 7.95313C23.3147 7.95313 23.065 8.02888 22.8526 8.17081C22.6402 8.31274 22.4746 8.51447 22.3769 8.75049C22.2791 8.98651 22.2535 9.24623 22.3034 9.49678C22.3532 9.74734 22.4762 9.9775 22.6569 10.1581C22.8375 10.3388 23.0677 10.4618 23.3182 10.5116C23.5688 10.5615 23.8285 10.5359 24.0645 10.4381C24.3005 10.3404 24.5023 10.1748 24.6442 9.9624C24.7861 9.74999 24.8619 9.50026 24.8619 9.24479C24.8615 8.90234 24.7253 8.57402 24.4831 8.33187C24.241 8.08972 23.9127 7.95351 23.5702 7.95313ZM23.5702 9.89063C23.4425 9.89063 23.3176 9.85275 23.2114 9.78178C23.1052 9.71082 23.0224 9.60995 22.9735 9.49194C22.9247 9.37393 22.9119 9.24408 22.9368 9.1188C22.9617 8.99352 23.0232 8.87844 23.1135 8.78812C23.2039 8.6978 23.3189 8.63629 23.4442 8.61137C23.5695 8.58645 23.6993 8.59924 23.8174 8.64812C23.9354 8.697 24.0362 8.77978 24.1072 8.88599C24.1782 8.99219 24.216 9.11706 24.216 9.24479C24.2158 9.41602 24.1477 9.58017 24.0267 9.70125C23.9056 9.82232 23.7414 9.89043 23.5702 9.89063ZM21.3098 5.69271C21.0543 5.69271 20.8046 5.76846 20.5922 5.91039C20.3798 6.05232 20.2142 6.25405 20.1164 6.49008C20.0187 6.7261 19.9931 6.98581 20.0429 7.23637C20.0928 7.48693 20.2158 7.71708 20.3964 7.89772C20.5771 8.07836 20.8072 8.20138 21.0578 8.25122C21.3084 8.30106 21.5681 8.27548 21.8041 8.17772C22.0401 8.07996 22.2418 7.9144 22.3838 7.70199C22.5257 7.48957 22.6015 7.23984 22.6015 6.98438C22.6011 6.64192 22.4649 6.31361 22.2227 6.07145C21.9806 5.8293 21.6522 5.69309 21.3098 5.69271ZM21.3098 7.63021C21.1821 7.63021 21.0572 7.59233 20.951 7.52137C20.8448 7.4504 20.762 7.34954 20.7131 7.23152C20.6642 7.11351 20.6514 6.98366 20.6764 6.85838C20.7013 6.7331 20.7628 6.61802 20.8531 6.5277C20.9434 6.43738 21.0585 6.37587 21.1838 6.35095C21.3091 6.32603 21.4389 6.33882 21.5569 6.3877C21.6749 6.43658 21.7758 6.51936 21.8468 6.62557C21.9177 6.73178 21.9556 6.85664 21.9556 6.98438C21.9554 7.1556 21.8873 7.31976 21.7662 7.44083C21.6452 7.56191 21.481 7.63001 21.3098 7.63021ZM25.8306 5.69271C25.5752 5.69271 25.3254 5.76846 25.113 5.91039C24.9006 6.05232 24.735 6.25405 24.6373 6.49008C24.5395 6.7261 24.5139 6.98581 24.5638 7.23637C24.6136 7.48693 24.7366 7.71708 24.9173 7.89772C25.0979 8.07836 25.3281 8.20138 25.5786 8.25122C25.8292 8.30106 26.0889 8.27548 26.3249 8.17772C26.5609 8.07996 26.7627 7.9144 26.9046 7.70199C27.0465 7.48957 27.1223 7.23984 27.1223 6.98438C27.1219 6.64192 26.9857 6.31361 26.7435 6.07145C26.5014 5.8293 26.1731 5.69309 25.8306 5.69271ZM25.8306 7.63021C25.7029 7.63021 25.578 7.59233 25.4718 7.52137C25.3656 7.4504 25.2828 7.34954 25.2339 7.23152C25.1851 7.11351 25.1723 6.98366 25.1972 6.85838C25.2221 6.7331 25.2836 6.61802 25.3739 6.5277C25.4643 6.43738 25.5793 6.37587 25.7046 6.35095C25.8299 6.32603 25.9598 6.33882 26.0778 6.3877C26.1958 6.43658 26.2966 6.51936 26.3676 6.62557C26.4386 6.73178 26.4765 6.85664 26.4765 6.98438C26.4763 7.1556 26.4082 7.31976 26.2871 7.44083C26.166 7.56191 26.0018 7.63001 25.8306 7.63021Z" fill="black"/>
</svg>
