<svg width="21" height="33" viewBox="0 0 21 33" fill="none" xmlns="http://www.w3.org/2000/svg">
<path d="M18.4062 32.0234C18.9531 32.0228 19.4773 31.8053 19.864 31.4187C20.2506 31.032 20.4681 30.5078 20.4688 29.9609V2.46094C20.4681 1.91412 20.2506 1.38987 19.864 1.00321C19.4773 0.616553 18.9531 0.399056 18.4062 0.398438H2.59375C2.04693 0.399056 1.52269 0.616553 1.13603 1.00321C0.749366 1.38987 0.531869 1.91412 0.53125 2.46094V29.9609C0.531869 30.5078 0.749366 31.032 1.13603 31.4187C1.52269 31.8053 2.04693 32.0228 2.59375 32.0234H18.4062ZM2.59375 1.08594H18.4062C18.7708 1.08635 19.1203 1.23134 19.3781 1.48912C19.6358 1.74689 19.7808 2.09639 19.7812 2.46094V12.4297H1.21875V2.46094C1.21916 2.09639 1.36416 1.74689 1.62193 1.48912C1.8797 1.23134 2.2292 1.08635 2.59375 1.08594ZM1.21875 29.9609V13.1172H19.7812V29.9609C19.7808 30.3255 19.6358 30.675 19.3781 30.9328C19.1203 31.1905 18.7708 31.3355 18.4062 31.3359H2.59375C2.2292 31.3355 1.8797 31.1905 1.62193 30.9328C1.36416 30.675 1.21916 30.3255 1.21875 29.9609ZM3.625 21.0234C3.89841 21.0231 4.16053 20.9144 4.35386 20.7211C4.54719 20.5277 4.65594 20.2656 4.65625 19.9922V16.2109C4.65625 15.9374 4.5476 15.6751 4.3542 15.4817C4.16081 15.2883 3.8985 15.1797 3.625 15.1797C3.3515 15.1797 3.08919 15.2883 2.8958 15.4817C2.7024 15.6751 2.59375 15.9374 2.59375 16.2109V19.9922C2.59406 20.2656 2.70281 20.5277 2.89614 20.7211C3.08947 20.9144 3.35159 21.0231 3.625 21.0234ZM3.28125 16.2109C3.28125 16.1198 3.31747 16.0323 3.38193 15.9679C3.4464 15.9034 3.53383 15.8672 3.625 15.8672C3.71617 15.8672 3.8036 15.9034 3.86807 15.9679C3.93253 16.0323 3.96875 16.1198 3.96875 16.2109V19.9922C3.96875 20.0834 3.93253 20.1708 3.86807 20.2353C3.8036 20.2997 3.71617 20.3359 3.625 20.3359C3.53383 20.3359 3.4464 20.2997 3.38193 20.2353C3.31747 20.1708 3.28125 20.0834 3.28125 19.9922V16.2109ZM3.625 10.3672C3.89841 10.3669 4.16053 10.2581 4.35386 10.0648C4.54719 9.87147 4.65594 9.60935 4.65625 9.33594V5.55469C4.65625 5.28118 4.5476 5.01888 4.3542 4.82548C4.16081 4.63209 3.8985 4.52344 3.625 4.52344C3.3515 4.52344 3.08919 4.63209 2.8958 4.82548C2.7024 5.01888 2.59375 5.28118 2.59375 5.55469V9.33594C2.59406 9.60935 2.70281 9.87147 2.89614 10.0648C3.08947 10.2581 3.35159 10.3669 3.625 10.3672ZM3.28125 5.55469C3.28125 5.46352 3.31747 5.37609 3.38193 5.31162C3.4464 5.24715 3.53383 5.21094 3.625 5.21094C3.71617 5.21094 3.8036 5.24715 3.86807 5.31162C3.93253 5.37609 3.96875 5.46352 3.96875 5.55469V9.33594C3.96875 9.42711 3.93253 9.51454 3.86807 9.57901C3.8036 9.64347 3.71617 9.67969 3.625 9.67969C3.53383 9.67969 3.4464 9.64347 3.38193 9.57901C3.31747 9.51454 3.28125 9.42711 3.28125 9.33594V5.55469Z" fill="black"/>
</svg>
