<svg width="26" height="31" viewBox="0 0 26 31" fill="none" xmlns="http://www.w3.org/2000/svg">
<path d="M25.5515 28.3578V2.41414C25.5509 1.80724 25.3383 1.22538 24.9605 0.796233C24.5827 0.367084 24.0704 0.125687 23.5361 0.125H2.71068C2.17635 0.125687 1.66409 0.367084 1.28627 0.796233C0.908443 1.22538 0.695917 1.80724 0.695312 2.41414V28.3578C0.695917 28.9647 0.908443 29.5465 1.28627 29.9757C1.66409 30.4048 2.17635 30.6462 2.71068 30.6469H23.5361C24.0704 30.6462 24.5827 30.4048 24.9605 29.9757C25.3383 29.5465 25.5509 28.9647 25.5515 28.3578ZM2.71068 0.888048H23.5361C23.8923 0.888502 24.2338 1.04943 24.4857 1.33553C24.7376 1.62163 24.8793 2.00954 24.8797 2.41414V6.99243H1.3671V2.41414C1.3675 2.00954 1.50918 1.62163 1.76107 1.33553C2.01295 1.04943 2.35446 0.888502 2.71068 0.888048ZM1.3671 28.3578V7.75548H24.8797V28.3578C24.8793 28.7624 24.7376 29.1503 24.4857 29.4364C24.2338 29.7225 23.8923 29.8834 23.5361 29.8839H2.71068C2.35446 29.8834 2.01295 29.7225 1.76107 29.4364C1.50918 29.1503 1.3675 28.7624 1.3671 28.3578ZM13.1234 12.3338C9.97478 12.3338 7.41319 15.2433 7.41319 18.8197C7.41319 22.396 9.97478 25.3056 13.1234 25.3056C16.272 25.3056 18.8336 22.396 18.8336 18.8197C18.8336 15.2433 16.272 12.3338 13.1234 12.3338ZM13.1234 24.5425C10.3452 24.5425 8.08498 21.9753 8.08498 18.8197C8.08498 15.6641 10.3452 13.0968 13.1234 13.0968C15.9016 13.0968 18.1618 15.6641 18.1618 18.8197C18.1618 21.9753 15.9016 24.5425 13.1234 24.5425ZM13.1234 10.0446C11.336 10.0446 9.60398 10.7485 8.22234 12.0365C6.8407 13.3244 5.89497 15.1166 5.54627 17.1077C5.19757 19.0989 5.46749 21.1657 6.31004 22.9562C7.15259 24.7466 8.51563 26.1498 10.1669 26.9267C11.8182 27.7037 13.6556 27.8062 15.366 27.2169C17.0764 26.6276 18.5539 25.3828 19.5469 23.6948C20.5399 22.0068 20.9869 19.98 20.8117 17.9596C20.6366 15.9392 19.85 14.0503 18.5862 12.6148C17.8705 11.7974 17.0191 11.1493 16.0814 10.7082C15.1438 10.267 14.1383 10.0415 13.1234 10.0446ZM13.1234 26.8317C9.23394 26.8317 6.06961 23.2375 6.06961 18.8197C6.06961 14.4019 9.23394 10.8077 13.1234 10.8077C17.0128 10.8077 20.1772 14.4019 20.1772 18.8197C20.1772 23.2375 17.0128 26.8317 13.1234 26.8317ZM4.72604 6.22938C5.12464 6.22938 5.51429 6.09513 5.84572 5.84359C6.17714 5.59206 6.43545 5.23454 6.58799 4.81626C6.74053 4.39797 6.78044 3.9377 6.70268 3.49365C6.62491 3.0496 6.43297 2.64171 6.15112 2.32157C5.86926 2.00143 5.51016 1.78341 5.11922 1.69508C4.72827 1.60675 4.32305 1.65209 3.95479 1.82535C3.58653 1.99861 3.27178 2.29201 3.05033 2.66846C2.82887 3.04491 2.71068 3.48749 2.71068 3.94024C2.71128 4.54715 2.92381 5.129 3.30163 5.55815C3.67945 5.9873 4.19172 6.22869 4.72604 6.22938ZM4.39015 2.46244V3.17719C4.39015 3.27838 4.42553 3.37542 4.48853 3.44697C4.55152 3.51852 4.63695 3.55871 4.72604 3.55871C4.81512 3.55871 4.90056 3.51852 4.96355 3.44697C5.02654 3.37542 5.06193 3.27838 5.06193 3.17719V2.46244C5.37857 2.5553 5.65451 2.77614 5.83805 3.08357C6.02159 3.39099 6.10011 3.76389 6.05891 4.13237C6.0177 4.50085 5.85959 4.83962 5.61422 5.08516C5.36885 5.33071 5.05306 5.46617 4.72604 5.46617C4.39902 5.46617 4.08323 5.33071 3.83786 5.08516C3.59249 4.83962 3.43438 4.50085 3.39317 4.13237C3.35197 3.76389 3.43049 3.39099 3.61403 3.08357C3.79756 2.77614 4.07351 2.5553 4.39015 2.46244ZM10.1003 6.22938C10.4989 6.22938 10.8886 6.09513 11.22 5.84359C11.5514 5.59206 11.8098 5.23454 11.9623 4.81626C12.1148 4.39797 12.1547 3.9377 12.077 3.49365C11.9992 3.0496 11.8073 2.64171 11.5254 2.32157C11.2436 2.00143 10.8845 1.78341 10.4935 1.69508C10.1026 1.60675 9.69736 1.65209 9.3291 1.82535C8.96084 1.99861 8.64608 2.29201 8.42463 2.66846C8.20318 3.04491 8.08498 3.48749 8.08498 3.94024C8.08558 4.54715 8.29811 5.129 8.67593 5.55815C9.05375 5.9873 9.56602 6.22869 10.1003 6.22938ZM9.76445 2.46244V3.17719C9.76445 3.27838 9.79984 3.37542 9.86283 3.44697C9.92582 3.51852 10.0113 3.55871 10.1003 3.55871C10.1894 3.55871 10.2749 3.51852 10.3379 3.44697C10.4008 3.37542 10.4362 3.27838 10.4362 3.17719V2.46244C10.7529 2.5553 11.0288 2.77614 11.2124 3.08357C11.3959 3.39099 11.4744 3.76389 11.4332 4.13237C11.392 4.50085 11.2339 4.83962 10.9885 5.08516C10.7432 5.33071 10.4274 5.46617 10.1003 5.46617C9.77332 5.46617 9.45753 5.33071 9.21216 5.08516C8.96679 4.83962 8.80868 4.50085 8.76748 4.13237C8.72627 3.76389 8.80479 3.39099 8.98833 3.08357C9.17187 2.77614 9.44781 2.5553 9.76445 2.46244ZM15.4746 6.22938C15.8732 6.22938 16.2629 6.09513 16.5943 5.84359C16.9257 5.59206 17.1841 5.23454 17.3366 4.81626C17.4891 4.39797 17.529 3.9377 17.4513 3.49365C17.3735 3.0496 17.1816 2.64171 16.8997 2.32157C16.6179 2.00143 16.2588 1.78341 15.8678 1.69508C15.4769 1.60675 15.0717 1.65209 14.7034 1.82535C14.3351 1.99861 14.0204 2.29201 13.7989 2.66846C13.5775 3.04491 13.4593 3.48749 13.4593 3.94024C13.4599 4.54715 13.6724 5.129 14.0502 5.55815C14.4281 5.9873 14.9403 6.22869 15.4746 6.22938ZM15.1388 2.46244V3.17719C15.1388 3.27838 15.1741 3.37542 15.2371 3.44697C15.3001 3.51852 15.3856 3.55871 15.4746 3.55871C15.5637 3.55871 15.6492 3.51852 15.7122 3.44697C15.7751 3.37542 15.8105 3.27838 15.8105 3.17719V2.46244C16.1272 2.5553 16.4031 2.77614 16.5867 3.08357C16.7702 3.39099 16.8487 3.76389 16.8075 4.13237C16.7663 4.50085 16.6082 4.83962 16.3628 5.08516C16.1175 5.33071 15.8017 5.46617 15.4746 5.46617C15.1476 5.46617 14.8318 5.33071 14.5865 5.08516C14.3411 4.83962 14.183 4.50085 14.1418 4.13237C14.1006 3.76389 14.1791 3.39099 14.3626 3.08357C14.5462 2.77614 14.8221 2.5553 15.1388 2.46244ZM19.1695 5.84786H23.2002C23.2893 5.84786 23.3747 5.80766 23.4377 5.73611C23.5007 5.66456 23.5361 5.56752 23.5361 5.46633V2.41414C23.5361 2.31296 23.5007 2.21591 23.4377 2.14436C23.3747 2.07281 23.2893 2.03262 23.2002 2.03262H19.1695C19.0804 2.03262 18.995 2.07281 18.932 2.14436C18.869 2.21591 18.8336 2.31296 18.8336 2.41414V5.46633C18.8336 5.56752 18.869 5.66456 18.932 5.73611C18.995 5.80766 19.0804 5.84786 19.1695 5.84786ZM19.5054 2.79567H22.8643V5.08481H19.5054V2.79567Z" fill="black"/>
</svg>
