<svg width="29" height="27" viewBox="0 0 29 27" fill="none" xmlns="http://www.w3.org/2000/svg">
<path d="M0.898438 23.9688C0.898438 24.0627 0.935751 24.1528 1.00217 24.2192C1.06859 24.2856 1.15867 24.3229 1.2526 24.3229H1.82373L1.27081 25.9818C1.25306 26.035 1.24823 26.0917 1.25669 26.1472C1.26515 26.2026 1.28667 26.2553 1.31948 26.3008C1.35229 26.3464 1.39545 26.3834 1.4454 26.409C1.49535 26.4346 1.55066 26.4479 1.60677 26.4479H27.1068C27.1582 26.4479 27.209 26.4367 27.2557 26.4151C27.3024 26.3935 27.3438 26.3619 27.377 26.3227C27.4103 26.2834 27.4346 26.2374 27.4482 26.1878C27.4619 26.1382 27.4646 26.0863 27.4561 26.0355L27.1707 24.3229H27.8151C27.8637 24.3229 27.9118 24.3129 27.9564 24.2935C28.0009 24.2742 28.041 24.2458 28.0742 24.2103C28.1073 24.1747 28.1328 24.1327 28.149 24.0869C28.1652 24.0411 28.1718 23.9924 28.1684 23.944L27.1068 8.72733V6.26042C27.1068 6.16649 27.0695 6.07641 27.003 6.00999C26.9366 5.94357 26.8465 5.90625 26.7526 5.90625H26.3984V3.41409C26.3995 3.04734 26.4949 2.68704 26.6756 2.36789C26.8563 2.04875 27.1162 1.78151 27.4301 1.59194L27.9973 1.25162C28.0779 1.20329 28.1359 1.12495 28.1587 1.03382C28.1815 0.942692 28.1671 0.846248 28.1188 0.765702C28.0705 0.685156 27.9921 0.627107 27.901 0.604326C27.8099 0.581544 27.7134 0.595895 27.6329 0.644223L27.0657 0.984541C26.6471 1.23731 26.3006 1.59362 26.0597 2.01915C25.8188 2.44468 25.6915 2.92509 25.6901 3.41409V5.90625H25.3359C25.242 5.90625 25.1519 5.94357 25.0855 6.00999C25.0191 6.07641 24.9818 6.16649 24.9818 6.26042V8.38542H14.0026C11.2684 8.38542 9.04427 10.6096 9.04427 13.3438V15.8229C6.88386 15.8229 4.81194 16.6811 3.2843 18.2088C1.75666 19.7364 0.898438 21.8083 0.898438 23.9688ZM26.6889 25.7396H2.09814L2.57035 24.3229H26.4526L26.6889 25.7396ZM25.6901 6.61459H26.3984V8.38542H25.6901V6.61459ZM9.04427 16.5313H9.39844C9.49237 16.5313 9.58245 16.4939 9.64887 16.4275C9.71529 16.3611 9.7526 16.271 9.7526 16.1771V13.3438C9.75388 12.217 10.2021 11.1367 10.9988 10.34C11.7956 9.54321 12.8758 9.09503 14.0026 9.09375H26.4223L27.4352 23.6146H1.61509C1.80046 19.6772 5.06188 16.5313 9.04427 16.5313ZM12.2318 16.5313H23.9193C24.0132 16.5313 24.1033 16.4939 24.1697 16.4275C24.2361 16.3611 24.2734 16.271 24.2734 16.1771V11.5729C24.2734 11.479 24.2361 11.3889 24.1697 11.3225C24.1033 11.2561 24.0132 11.2188 23.9193 11.2188H14.0026C13.4392 11.2194 12.8991 11.4435 12.5007 11.8419C12.1023 12.2402 11.8782 12.7804 11.8776 13.3438V16.1771C11.8776 16.271 11.9149 16.3611 11.9813 16.4275C12.0478 16.4939 12.1378 16.5313 12.2318 16.5313ZM15.4193 15.8229V15.1146H20.7318V15.8229H15.4193ZM12.5859 13.3438C12.5864 12.9682 12.7358 12.6081 13.0013 12.3425C13.2669 12.0769 13.627 11.9275 14.0026 11.9271H23.5651V15.8229H21.4401V14.7604C21.4401 14.6665 21.4028 14.5764 21.3364 14.51C21.27 14.4436 21.1799 14.4063 21.0859 14.4063H15.0651C14.9712 14.4063 14.8811 14.4436 14.8147 14.51C14.7483 14.5764 14.7109 14.6665 14.7109 14.7604V15.8229H12.5859V13.3438ZM22.8568 19.0104C22.8568 19.2906 22.9399 19.5645 23.0955 19.7975C23.2512 20.0305 23.4724 20.212 23.7313 20.3193C23.9902 20.4265 24.275 20.4545 24.5498 20.3999C24.8246 20.3452 25.077 20.2103 25.2752 20.0122C25.4733 19.814 25.6082 19.5616 25.6629 19.2868C25.7175 19.012 25.6895 18.7271 25.5823 18.4683C25.475 18.2094 25.2935 17.9882 25.0605 17.8325C24.8275 17.6768 24.5536 17.5938 24.2734 17.5938C23.8978 17.5942 23.5378 17.7436 23.2722 18.0092C23.0066 18.2747 22.8572 18.6348 22.8568 19.0104ZM24.9818 19.0104C24.9818 19.1505 24.9402 19.2875 24.8624 19.404C24.7846 19.5204 24.6739 19.6112 24.5445 19.6648C24.4151 19.7185 24.2727 19.7325 24.1352 19.7051C23.9978 19.6778 23.8716 19.6104 23.7726 19.5113C23.6735 19.4122 23.606 19.286 23.5787 19.1486C23.5514 19.0112 23.5654 18.8688 23.619 18.7394C23.6726 18.6099 23.7634 18.4993 23.8799 18.4215C23.9964 18.3436 24.1333 18.3021 24.2734 18.3021C24.4612 18.3023 24.6413 18.377 24.7741 18.5098C24.9069 18.6426 24.9816 18.8226 24.9818 19.0104Z" fill="black"/>
</svg>
