<svg width="48" height="24" viewBox="0 0 48 24" fill="none" xmlns="http://www.w3.org/2000/svg">
<rect y="9.5" width="9" height="9" rx="2" transform="rotate(-90 0 9.5)" fill="#454545"/>
<rect x="13" y="9.5" width="9" height="9" rx="2" transform="rotate(-90 13 9.5)" fill="#454545"/>
<rect x="26" y="9.5" width="9" height="9" rx="2" transform="rotate(-90 26 9.5)" fill="#454545"/>
<rect x="39" y="9.5" width="9" height="9" rx="2" transform="rotate(-90 39 9.5)" fill="#454545"/>
<rect y="23.5" width="9" height="9" rx="2" transform="rotate(-90 0 23.5)" fill="#454545"/>
<rect x="13" y="23.5" width="9" height="9" rx="2" transform="rotate(-90 13 23.5)" fill="#454545"/>
<rect x="26" y="23.5" width="9" height="9" rx="2" transform="rotate(-90 26 23.5)" fill="#454545"/>
<rect x="39" y="23.5" width="9" height="9" rx="2" transform="rotate(-90 39 23.5)" fill="#454545"/>
</svg>
